HIERARCHY
ROOT Hips
{
	OFFSET 0.00 86.18 0.00
	CHANNELS 6 Xposition Yposition Zposition Yrotation Xrotation Zrotation
	JOINT RightUpLeg
	{
		OFFSET -9.25 0.00 0.00
		CHANNELS 6 Xposition Yposition Zposition Yrotation Xrotation Zrotation
		JOINT RightLeg
		{
			OFFSET 0.00 -42.00 0.00
			CHANNELS 6 Xposition Yposition Zposition Yrotation Xrotation Zrotation
			JOINT RightFoot
			{
				OFFSET 0.00 -42.00 0.00
				CHANNELS 6 Xposition Yposition Zposition Yrotation Xrotation Zrotation
				End Site
				{
					OFFSET 0 -1.14 11.36
				}
			}
		}
	}
	JOINT LeftUpLeg
	{
		OFFSET 9.25 0.00 0.00
		CHANNELS 6 Xposition Yposition Zposition Yrotation Xrotation Zrotation
		JOINT LeftLeg
		{
			OFFSET 0.00 -42.00 0.00
			CHANNELS 6 Xposition Yposition Zposition Yrotation Xrotation Zrotation
			JOINT LeftFoot
			{
				OFFSET 0.00 -42.00 0.00
				CHANNELS 6 Xposition Yposition Zposition Yrotation Xrotation Zrotation
				End Site
				{
					OFFSET 0 -1.14 11.36
				}
			}
		}
	}
	JOINT Spine
	{
		OFFSET 0.00 10.46 0.00
		CHANNELS 6 Xposition Yposition Zposition Yrotation Xrotation Zrotation
		JOINT Spine1
		{
			OFFSET 0.00 9.75 0.00
			CHANNELS 6 Xposition Yposition Zposition Yrotation Xrotation Zrotation
			JOINT Spine2
			{
				OFFSET 0.00 10.15 0.00
				CHANNELS 6 Xposition Yposition Zposition Yrotation Xrotation Zrotation
				JOINT Spine3
				{
					OFFSET 0.00 9.75 0.00
					CHANNELS 6 Xposition Yposition Zposition Yrotation Xrotation Zrotation
			 		JOINT Neck
					{
						OFFSET 0.00 10.42 0.00
						CHANNELS 6 Xposition Yposition Zposition Yrotation Xrotation Zrotation
						JOINT Head
						{
							OFFSET 0.00 9.50 0.00
							CHANNELS 6 Xposition Yposition Zposition Yrotation Xrotation Zrotation
							End Site
							{
								OFFSET 0 16.00 0
							}
						}    
					} 
					JOINT RightShoulder
	 					{
						OFFSET -3.20 6.94 0.00
						CHANNELS 6 Xposition Yposition Zposition Yrotation Xrotation Zrotation
						JOINT RightArm
						{
							OFFSET -16.00 0.00 0.00
							CHANNELS 6 Xposition Yposition Zposition Yrotation Xrotation Zrotation
							JOINT RightForeArm
							{
								OFFSET -26.50 0.00 0.00
								CHANNELS 6 Xposition Yposition Zposition Yrotation Xrotation Zrotation
								JOINT RightHand
								{
									OFFSET -26.00 0.00 0.00
									CHANNELS 6 Xposition Yposition Zposition Yrotation Xrotation Zrotation
									End Site
									{
										OFFSET -17.50 0 0
									}
								}
							}
						}	
					}
					JOINT LeftShoulder
					{
						OFFSET 3.20 6.94 0.00
						CHANNELS 6 Xposition Yposition Zposition Yrotation Xrotation Zrotation
						JOINT LeftArm
						{
							OFFSET 16.00 0.00 0.00
							CHANNELS 6 Xposition Yposition Zposition Yrotation Xrotation Zrotation
							JOINT LeftForeArm
							{
								OFFSET 26.50 0.00 0.00
								CHANNELS 6 Xposition Yposition Zposition Yrotation Xrotation Zrotation
								JOINT LeftHand
								{
									OFFSET 26.00 0.00 0.00
									CHANNELS 6 Xposition Yposition Zposition Yrotation Xrotation Zrotation
									End Site
									{
										OFFSET 17.50 0 0
									}
								}
							}
						}
					}     			
				}
			}
		} 
	} 
}
MOTION
Frames: 16
Frame Time: 0.010
0.42 92.78 -0.04 -92.99 1.59 -2.03 -9.21 0.01 0.04 -33.35 -0.06 -4.01 0.08 -42.00 0.00 21.31 -0.05 1.53 0.05 -42.49 0.33 -3.84 -1.65 0.69 9.25 -0.02 -0.05 13.66 -2.05 0.76 0.01 -42.00 -0.00 -10.35 4.46 4.42 0.09 -41.48 0.29 4.23 -3.32 1.41 0.03 10.46 0.03 -0.53 -0.77 1.94 0.02 9.75 0.03 -0.13 -0.19 0.48 0.01 10.15 0.00 -0.23 -0.32 0.81 0.01 9.75 0.00 0.62 -0.63 -0.03 0.01 10.42 -0.00 0.62 -0.63 -0.03 0.02 9.50 -0.01 11.57 -10.09 -1.47 -3.20 6.95 -0.01 -0.27 5.47 -1.94 -15.99 0.01 0.04 5.01 -2.45 83.61 -26.50 0.02 0.06 5.48 7.60 0.25 -26.00 0.03 0.03 6.20 7.87 -13.02 3.20 6.94 -0.02 1.03 0.17 -7.14 16.02 -0.01 -0.01 -9.99 9.61 -75.84 26.50 0.01 -0.00 -10.52 4.42 -3.58 26.00 0.01 -0.01 -4.51 16.83 9.59 
0.42 92.78 -0.04 -92.99 1.59 -2.03 -9.21 0.01 0.04 -33.35 -0.06 -4.01 0.08 -42.00 0.00 21.31 -0.05 1.53 0.05 -42.49 0.33 -3.84 -1.65 0.69 9.25 -0.02 -0.05 13.66 -2.05 0.76 0.01 -42.00 -0.00 -10.35 4.46 4.42 0.09 -41.48 0.29 4.23 -3.32 1.41 0.03 10.46 0.03 -0.53 -0.77 1.94 0.02 9.75 0.03 -0.13 -0.19 0.48 0.01 10.15 0.00 -0.23 -0.32 0.81 0.01 9.75 0.00 0.62 -0.63 -0.03 0.01 10.42 -0.00 0.62 -0.63 -0.03 0.02 9.50 -0.01 11.57 -10.09 -1.47 -3.20 6.95 -0.01 -0.27 5.47 -1.94 -15.99 0.01 0.04 5.01 -2.45 83.61 -26.50 0.02 0.06 5.48 7.60 0.25 -26.00 0.03 0.03 6.20 7.87 -13.02 3.20 6.94 -0.02 1.03 0.17 -7.14 16.02 -0.01 -0.01 -9.99 9.61 -75.84 26.50 0.01 -0.00 -10.52 4.42 -3.58 26.00 0.01 -0.01 -4.51 16.83 9.59 
0.42 92.78 -0.04 -92.99 1.59 -2.03 -9.21 0.01 0.04 -33.35 -0.06 -4.01 0.08 -42.00 0.00 21.31 -0.05 1.53 0.05 -42.49 0.33 -3.84 -1.65 0.69 9.25 -0.02 -0.05 13.66 -2.05 0.76 0.01 -42.00 -0.00 -10.35 4.46 4.42 0.09 -41.48 0.29 4.23 -3.32 1.41 0.03 10.46 0.03 -0.53 -0.77 1.94 0.03 9.75 0.03 -0.13 -0.19 0.48 0.01 10.15 0.00 -0.23 -0.32 0.81 0.01 9.75 0.00 0.62 -0.63 -0.03 0.01 10.42 -0.00 0.62 -0.63 -0.03 0.02 9.50 -0.01 11.57 -10.09 -1.47 -3.20 6.95 -0.01 -0.27 5.47 -1.94 -15.99 0.01 0.04 5.01 -2.45 83.61 -26.50 0.02 0.06 5.48 7.60 0.25 -26.00 0.03 0.03 6.20 7.87 -13.02 3.20 6.94 -0.02 1.03 0.17 -7.14 16.02 -0.01 -0.01 -9.99 9.61 -75.84 26.50 0.01 -0.00 -10.52 4.42 -3.58 26.00 0.01 -0.01 -4.51 16.83 9.59 
0.42 92.78 -0.04 -92.99 1.59 -2.03 -9.21 0.01 0.04 -33.35 -0.06 -4.01 0.08 -42.00 0.01 21.31 -0.05 1.53 0.05 -42.49 0.33 -3.84 -1.65 0.69 9.25 -0.02 -0.05 13.66 -2.05 0.76 0.01 -42.00 -0.00 -10.35 4.46 4.42 0.09 -41.48 0.29 4.23 -3.32 1.41 0.03 10.46 0.03 -0.53 -0.77 1.94 0.02 9.75 0.03 -0.13 -0.19 0.48 0.01 10.15 0.00 -0.23 -0.32 0.81 0.01 9.75 0.00 0.62 -0.63 -0.03 0.01 10.42 -0.01 0.62 -0.63 -0.03 0.02 9.50 -0.01 11.57 -10.09 -1.47 -3.20 6.95 -0.01 -0.27 5.47 -1.94 -15.99 0.01 0.04 5.01 -2.45 83.61 -26.50 0.02 0.06 5.48 7.60 0.25 -26.00 0.02 0.02 6.20 7.87 -13.02 3.20 6.94 -0.02 1.03 0.17 -7.14 16.02 -0.01 -0.01 -9.99 9.61 -75.84 26.50 0.01 -0.00 -10.52 4.42 -3.58 26.00 0.01 -0.01 -4.51 16.83 9.59 
0.43 92.78 -0.04 -92.99 1.59 -2.02 -9.21 0.01 0.04 -33.38 -0.08 -4.01 0.07 -42.00 0.00 21.34 -0.05 1.54 0.05 -42.49 0.33 -3.84 -1.64 0.69 9.25 -0.02 -0.04 13.68 -2.04 0.76 0.00 -42.00 0.00 -10.39 4.44 4.42 0.10 -41.48 0.28 4.24 -3.32 1.41 0.03 10.46 0.03 -0.54 -0.76 1.94 0.02 9.75 0.03 -0.14 -0.19 0.48 0.01 10.15 0.00 -0.23 -0.32 0.81 0.01 9.75 0.00 0.62 -0.63 -0.03 0.01 10.42 -0.00 0.62 -0.62 -0.03 0.02 9.50 -0.01 11.57 -10.07 -1.46 -3.20 6.95 -0.01 -0.25 5.47 -1.94 -15.99 0.01 0.04 4.98 -2.44 83.62 -26.50 0.02 0.06 5.49 7.62 0.25 -26.00 0.03 0.02 6.22 7.87 -13.01 3.20 6.94 -0.02 1.02 0.15 -7.14 16.02 -0.01 -0.01 -9.98 9.62 -75.86 26.50 0.01 -0.00 -10.52 4.41 -3.58 26.00 0.01 -0.02 -4.53 16.84 9.57 
0.43 92.78 -0.04 -93.00 1.58 -2.02 -9.21 0.01 0.04 -33.37 -0.08 -4.01 0.07 -42.00 0.00 21.35 -0.04 1.54 0.05 -42.49 0.33 -3.83 -1.65 0.69 9.25 -0.02 -0.04 13.71 -2.02 0.76 0.00 -42.00 0.01 -10.42 4.41 4.42 0.10 -41.48 0.28 4.26 -3.31 1.42 0.03 10.46 0.03 -0.54 -0.76 1.94 0.03 9.75 0.03 -0.14 -0.19 0.48 0.01 10.15 0.00 -0.23 -0.32 0.81 0.01 9.75 0.00 0.62 -0.63 -0.03 0.01 10.42 -0.00 0.62 -0.62 -0.03 0.02 9.50 -0.01 11.56 -10.06 -1.45 -3.20 6.95 -0.01 -0.24 5.47 -1.93 -15.99 0.01 0.04 4.94 -2.43 83.62 -26.50 0.02 0.06 5.51 7.64 0.26 -26.00 0.03 0.02 6.20 7.85 -13.02 3.20 6.93 -0.02 0.99 0.13 -7.13 16.02 -0.01 -0.02 -9.96 9.64 -75.86 26.50 0.02 -0.00 -10.52 4.40 -3.59 26.00 0.02 -0.01 -4.52 16.85 9.56 
0.44 92.78 -0.04 -93.01 1.59 -2.03 -9.21 0.01 0.04 -33.35 -0.07 -4.01 0.07 -42.00 0.01 21.34 -0.04 1.54 0.05 -42.49 0.34 -3.82 -1.66 0.69 9.24 -0.02 -0.05 13.69 -2.06 0.76 0.01 -42.00 -0.00 -10.39 4.44 4.41 0.10 -41.48 0.27 4.25 -3.31 1.41 0.03 10.46 0.03 -0.55 -0.76 1.95 0.03 9.75 0.03 -0.14 -0.19 0.49 0.01 10.15 0.00 -0.24 -0.32 0.81 0.01 9.75 0.00 0.62 -0.63 -0.03 0.01 10.42 -0.01 0.62 -0.62 -0.03 0.02 9.50 -0.01 11.57 -10.03 -1.43 -3.19 6.95 -0.01 -0.22 5.48 -1.92 -15.99 0.01 0.03 4.91 -2.44 83.61 -26.50 0.02 0.06 5.50 7.65 0.27 -26.00 0.03 0.02 6.21 7.86 -13.01 3.20 6.94 -0.03 0.97 0.12 -7.14 16.01 -0.01 -0.02 -9.95 9.64 -75.85 26.50 0.01 -0.01 -10.52 4.40 -3.59 26.00 0.02 -0.01 -4.51 16.86 9.55 
0.45 92.78 -0.04 -93.01 1.58 -2.02 -9.21 0.01 0.04 -33.34 -0.08 -4.02 0.07 -42.00 0.01 21.34 -0.04 1.55 0.05 -42.49 0.34 -3.81 -1.66 0.69 9.24 -0.02 -0.04 13.72 -2.04 0.76 0.00 -42.00 0.01 -10.41 4.42 4.41 0.11 -41.48 0.27 4.23 -3.30 1.41 0.03 10.46 0.03 -0.56 -0.77 1.94 0.03 9.75 0.03 -0.14 -0.19 0.48 0.01 10.15 0.00 -0.24 -0.32 0.81 0.01 9.75 0.00 0.62 -0.63 -0.02 0.01 10.42 -0.01 0.62 -0.62 -0.02 0.02 9.50 -0.01 11.55 -10.01 -1.40 -3.19 6.95 -0.01 -0.19 5.51 -1.91 -15.99 0.01 0.03 4.89 -2.45 83.61 -26.50 0.02 0.05 5.52 7.66 0.28 -26.00 0.02 0.02 6.19 7.83 -13.03 3.20 6.94 -0.03 0.96 0.13 -7.15 16.01 -0.01 -0.02 -9.95 9.64 -75.84 26.50 0.01 -0.01 -10.51 4.40 -3.59 26.00 0.02 -0.01 -4.50 16.86 9.54 
0.46 92.78 -0.04 -93.01 1.56 -2.02 -9.21 0.01 0.04 -33.34 -0.08 -4.02 0.07 -42.00 0.01 21.33 -0.03 1.54 0.05 -42.49 0.33 -3.81 -1.64 0.70 9.24 -0.02 -0.05 13.70 -2.06 0.76 0.00 -42.00 -0.01 -10.38 4.45 4.40 0.11 -41.48 0.26 4.22 -3.29 1.41 0.03 10.46 0.03 -0.57 -0.75 1.94 0.03 9.75 0.03 -0.14 -0.19 0.48 0.01 10.15 0.00 -0.24 -0.31 0.81 0.01 9.75 0.00 0.62 -0.63 -0.02 0.01 10.42 -0.00 0.62 -0.62 -0.02 0.02 9.50 -0.01 11.56 -10.01 -1.38 -3.19 6.95 -0.01 -0.17 5.52 -1.90 -15.99 0.01 0.02 4.89 -2.48 83.61 -26.50 0.02 0.05 5.49 7.65 0.27 -26.00 0.02 0.02 6.18 7.83 -13.03 3.20 6.94 -0.03 0.95 0.12 -7.15 16.01 -0.00 -0.03 -9.97 9.64 -75.85 26.50 0.01 -0.01 -10.50 4.41 -3.58 26.00 0.01 -0.02 -4.49 16.85 9.58 
0.47 92.78 -0.04 -93.01 1.56 -2.01 -9.22 0.01 0.04 -33.35 -0.09 -4.02 0.07 -42.00 0.01 21.34 -0.04 1.54 0.05 -42.49 0.32 -3.82 -1.63 0.69 9.24 -0.02 -0.04 13.72 -2.04 0.75 0.00 -42.00 0.00 -10.39 4.42 4.39 0.11 -41.48 0.25 4.23 -3.28 1.42 0.03 10.46 0.03 -0.57 -0.75 1.94 0.03 9.75 0.03 -0.14 -0.19 0.48 0.02 10.15 0.00 -0.24 -0.31 0.81 0.02 9.75 0.00 0.62 -0.63 -0.02 0.01 10.42 -0.00 0.62 -0.62 -0.02 0.03 9.50 -0.01 11.56 -10.01 -1.38 -3.19 6.95 -0.02 -0.16 5.54 -1.91 -15.99 0.01 0.02 4.89 -2.51 83.62 -26.50 0.02 0.04 5.48 7.64 0.26 -26.00 0.02 0.02 6.16 7.82 -13.04 3.20 6.94 -0.03 0.94 0.13 -7.16 16.01 -0.01 -0.03 -9.98 9.63 -75.85 26.50 0.01 -0.01 -10.48 4.43 -3.58 26.00 0.01 -0.01 -4.48 16.84 9.58 
0.48 92.79 -0.04 -93.04 1.54 -2.02 -9.21 0.01 0.05 -33.33 -0.09 -4.02 0.07 -42.00 0.00 21.35 -0.03 1.54 0.05 -42.49 0.31 -3.81 -1.62 0.70 9.24 -0.02 -0.06 13.73 -2.08 0.77 -0.00 -42.00 -0.01 -10.37 4.47 4.38 0.11 -41.49 0.25 4.23 -3.28 1.42 0.03 10.46 0.03 -0.56 -0.73 1.95 0.03 9.75 0.03 -0.14 -0.18 0.49 0.01 10.15 0.00 -0.24 -0.30 0.81 0.02 9.75 -0.00 0.62 -0.63 -0.02 0.01 10.42 -0.01 0.62 -0.62 -0.02 0.03 9.50 -0.01 11.55 -10.02 -1.38 -3.19 6.96 -0.02 -0.15 5.54 -1.90 -16.00 0.02 0.02 4.91 -2.53 83.62 -26.50 0.02 0.04 5.45 7.62 0.25 -26.00 0.02 0.02 6.16 7.83 -13.03 3.20 6.93 -0.03 0.94 0.13 -7.15 16.01 -0.01 -0.02 -10.00 9.63 -75.87 26.50 0.01 -0.01 -10.46 4.42 -3.56 26.00 0.01 -0.01 -4.48 16.82 9.60 
0.49 92.79 -0.04 -93.04 1.54 -2.02 -9.22 0.01 0.05 -33.33 -0.12 -4.00 0.07 -42.00 0.01 21.36 -0.01 1.53 0.05 -42.49 0.30 -3.82 -1.61 0.69 9.24 -0.02 -0.06 13.74 -2.09 0.77 -0.00 -42.00 0.00 -10.40 4.47 4.37 0.11 -41.49 0.25 4.24 -3.28 1.43 0.02 10.46 0.03 -0.57 -0.75 1.96 0.03 9.75 0.03 -0.14 -0.19 0.49 0.01 10.15 0.00 -0.24 -0.31 0.81 0.02 9.75 -0.00 0.62 -0.62 -0.02 0.01 10.42 -0.01 0.62 -0.62 -0.02 0.03 9.50 -0.01 11.56 -10.00 -1.37 -3.19 6.96 -0.02 -0.13 5.57 -1.90 -15.99 0.02 0.02 4.90 -2.54 83.62 -26.50 0.02 0.04 5.45 7.62 0.24 -26.00 0.02 0.02 6.13 7.84 -13.03 3.20 6.93 -0.03 0.94 0.15 -7.15 16.01 -0.01 -0.02 -10.01 9.63 -75.88 26.50 0.01 -0.00 -10.45 4.41 -3.54 26.00 0.00 -0.01 -4.48 16.81 9.61 
0.50 92.79 -0.03 -93.04 1.52 -2.02 -9.22 0.01 0.04 -33.33 -0.12 -3.99 0.07 -42.00 0.01 21.36 0.02 1.52 0.05 -42.49 0.30 -3.82 -1.60 0.70 9.24 -0.02 -0.06 13.76 -2.07 0.78 -0.00 -42.00 -0.00 -10.43 4.46 4.36 0.11 -41.49 0.25 4.24 -3.27 1.43 0.02 10.46 0.04 -0.58 -0.73 1.96 0.03 9.75 0.03 -0.15 -0.18 0.49 0.02 10.15 0.00 -0.25 -0.30 0.82 0.02 9.75 -0.00 0.62 -0.62 -0.02 0.01 10.42 -0.01 0.62 -0.62 -0.02 0.03 9.50 -0.01 11.56 -10.00 -1.37 -3.19 6.96 -0.02 -0.12 5.58 -1.90 -15.99 0.01 0.02 4.91 -2.56 83.61 -26.50 0.02 0.04 5.43 7.61 0.24 -26.00 0.02 0.02 6.12 7.85 -13.03 3.20 6.93 -0.03 0.94 0.15 -7.15 16.01 -0.01 -0.02 -10.00 9.64 -75.89 26.50 0.00 0.00 -10.44 4.41 -3.51 26.00 -0.01 -0.00 -4.48 16.80 9.62 
0.52 92.79 -0.03 -93.04 1.50 -2.02 -9.21 0.01 0.04 -33.29 -0.13 -4.00 0.07 -42.00 0.00 21.33 0.03 1.52 0.05 -42.48 0.29 -3.82 -1.58 0.69 9.24 -0.02 -0.06 13.78 -2.05 0.77 -0.00 -42.00 0.00 -10.45 4.45 4.36 0.11 -41.49 0.24 4.24 -3.25 1.43 0.02 10.46 0.04 -0.60 -0.71 1.96 0.03 9.75 0.03 -0.15 -0.18 0.49 0.01 10.15 0.00 -0.25 -0.30 0.82 0.01 9.75 -0.00 0.62 -0.62 -0.02 0.01 10.42 -0.01 0.63 -0.62 -0.02 0.03 9.50 -0.01 11.57 -9.99 -1.35 -3.19 6.95 -0.01 -0.11 5.60 -1.90 -15.99 0.01 0.02 4.91 -2.58 83.61 -26.50 0.02 0.04 5.45 7.62 0.24 -26.00 0.01 0.02 6.09 7.85 -13.04 3.20 6.93 -0.03 0.94 0.14 -7.14 16.01 -0.01 -0.02 -9.97 9.64 -75.89 26.50 0.00 0.00 -10.42 4.42 -3.51 26.00 -0.01 -0.00 -4.49 16.80 9.62 
0.54 92.79 -0.03 -93.03 1.50 -2.01 -9.22 0.01 0.04 -33.28 -0.13 -4.00 0.08 -42.00 0.00 21.31 0.03 1.51 0.05 -42.48 0.30 -3.83 -1.56 0.70 9.24 -0.02 -0.06 13.77 -2.06 0.76 0.00 -42.00 0.00 -10.46 4.45 4.36 0.11 -41.49 0.24 4.24 -3.24 1.43 0.02 10.46 0.04 -0.62 -0.71 1.96 0.02 9.75 0.03 -0.16 -0.18 0.49 0.01 10.15 -0.00 -0.26 -0.29 0.81 0.01 9.75 -0.00 0.62 -0.62 -0.02 0.01 10.42 -0.01 0.63 -0.62 -0.02 0.03 9.50 -0.01 11.59 -9.99 -1.34 -3.20 6.95 -0.01 -0.09 5.62 -1.91 -15.99 0.01 0.02 4.90 -2.61 83.61 -26.50 0.02 0.04 5.44 7.62 0.25 -26.00 0.01 0.02 6.08 7.87 -13.05 3.20 6.93 -0.03 0.94 0.13 -7.14 16.01 -0.01 -0.02 -9.95 9.64 -75.88 26.50 0.00 -0.00 -10.42 4.42 -3.52 26.00 -0.01 -0.00 -4.48 16.78 9.64 
0.55 92.79 -0.03 -93.04 1.48 -2.01 -9.21 0.01 0.04 -33.24 -0.11 -4.01 0.08 -42.00 0.00 21.26 0.03 1.50 0.05 -42.48 0.30 -3.80 -1.55 0.71 9.24 -0.02 -0.04 13.82 -2.02 0.76 0.00 -42.00 0.01 -10.48 4.41 4.36 0.11 -41.49 0.24 4.23 -3.23 1.44 0.02 10.46 0.04 -0.63 -0.69 1.96 0.02 9.75 0.03 -0.16 -0.17 0.49 0.01 10.15 -0.00 -0.27 -0.29 0.82 0.01 9.75 -0.00 0.63 -0.62 -0.02 0.01 10.42 -0.01 0.63 -0.62 -0.02 0.03 9.50 -0.01 11.60 -9.97 -1.33 -3.20 6.95 -0.01 -0.06 5.63 -1.91 -15.99 0.01 0.02 4.88 -2.61 83.60 -26.50 0.02 0.04 5.45 7.63 0.28 -26.00 0.02 0.02 6.07 7.88 -13.09 3.20 6.93 -0.03 0.94 0.13 -7.15 16.01 -0.01 -0.02 -9.92 9.65 -75.87 26.50 -0.00 0.00 -10.41 4.42 -3.52 26.00 -0.01 -0.00 -4.49 16.78 9.65 
